<?xml version="1.0" standalone="no"?>
<!DOCTYPE svg PUBLIC "-//W3C//DTD SVG 20010904//EN"
 "http://www.w3.org/TR/2001/REC-SVG-20010904/DTD/svg10.dtd">
<svg version="1.0" xmlns="http://www.w3.org/2000/svg"
 width="512.000000pt" height="512.000000pt" viewBox="0 0 512.000000 512.000000"
 preserveAspectRatio="xMidYMid meet">

<g transform="translate(0.000000,512.000000) scale(0.100000,-0.100000)"
fill="#000000" stroke="none">
<path d="M4690 5090 c-14 -4 -520 -220 -1125 -479 l-1100 -470 -20 24 c-65 79
-175 41 -190 -66 -6 -39 -12 -52 -33 -63 -24 -13 -27 -12 -47 18 -32 48 -70
62 -119 45 -48 -17 -76 -62 -76 -125 0 -34 -4 -43 -25 -52 -34 -16 -45 -15
-45 2 0 27 -59 66 -98 66 -64 -1 -102 -47 -102 -124 0 -41 -3 -47 -31 -61 -17
-9 -32 -15 -33 -13 -1 2 -8 16 -16 31 -35 69 -133 74 -176 9 -9 -13 -18 -50
-21 -82 -5 -51 -8 -58 -34 -67 -26 -10 -30 -9 -46 17 -33 56 -104 66 -154 22
-26 -23 -32 -38 -38 -86 l-6 -57 -150 -65 c-170 -72 -195 -93 -195 -158 0 -34
6 -48 29 -70 41 -39 85 -37 191 9 142 62 132 60 128 23 -3 -32 -3 -32 -113
-59 -92 -23 -115 -33 -138 -59 -36 -40 -36 -87 -1 -129 40 -48 88 -49 237 -5
16 5 17 -21 17 -450 l0 -456 -548 0 c-543 0 -548 0 -571 -21 -44 -41 -50 -95
-30 -295 38 -392 176 -749 389 -1009 158 -193 381 -360 593 -445 l57 -24 0
-130 c0 -155 12 -187 77 -205 52 -15 1374 -15 1425 -1 69 19 78 44 78 199 l0
136 61 25 c33 13 104 49 158 80 499 288 794 815 828 1476 7 134 -1 171 -43
199 -21 13 -135 15 -1004 15 l-980 0 0 514 0 514 22 6 c36 9 48 7 48 -8 0 -27
50 -56 95 -56 51 0 84 28 101 86 8 28 17 40 37 45 24 7 29 4 42 -27 42 -100
195 -63 195 47 0 27 4 39 14 39 8 0 21 3 30 6 14 5 16 -6 16 -82 1 -113 12
-163 45 -191 47 -41 125 -26 157 30 8 13 15 77 18 162 l5 140 1215 292 c668
161 1248 300 1288 309 44 10 85 26 102 41 58 48 45 137 -25 170 -34 16 -43 14
-1297 -287 -695 -166 -1269 -305 -1276 -308 -10 -3 -12 29 -10 154 l3 158
1154 496 c910 390 1159 501 1174 521 29 40 25 96 -9 129 -33 31 -67 41 -104
30z m-2444 -1537 c-3 -7 -17 -13 -31 -13 l-25 0 0 125 0 124 28 15 27 14 3
-126 c1 -69 0 -132 -2 -139z m-266 38 c0 -104 -1 -109 -22 -115 -13 -3 -26 -6
-30 -6 -5 0 -8 47 -8 103 0 98 1 105 23 115 12 6 25 11 30 11 4 1 7 -48 7
-108z m-272 -93 c-3 -82 -3 -83 -30 -86 l-28 -3 0 75 c0 61 3 77 18 85 38 23
43 15 40 -71z m-278 -93 c0 -30 -3 -55 -7 -55 -5 0 -18 -3 -30 -6 -22 -6 -23
-3 -23 44 0 38 4 54 18 61 35 21 42 13 42 -44z m0 -761 l0 -485 -27 3 -28 3
-3 474 c-2 498 -3 490 41 491 16 0 17 -30 17 -486z m2034 -746 c-43 -436 -175
-755 -418 -1006 -135 -140 -253 -224 -424 -300 l-92 -42 -693 0 -693 0 -130
64 c-157 78 -262 155 -381 279 -235 246 -379 585 -411 970 l-8 87 1628 0 1627
0 -5 -52z m-1044 -1608 l0 -50 -580 0 -580 0 0 50 0 50 580 0 580 0 0 -50z"/>
<path d="M478 1731 c-29 -26 -33 -35 -32 -78 2 -87 98 -326 182 -457 83 -128
198 -248 325 -337 55 -38 79 -49 109 -49 52 0 85 24 99 71 18 58 1 86 -92 154
-192 140 -323 331 -400 577 -23 75 -36 102 -60 122 -42 36 -89 35 -131 -3z"/>
</g>
</svg>
